<svg width="34" height="27" viewBox="0 0 34 27" fill="none" xmlns="http://www.w3.org/2000/svg">
<path d="M0 1.26562C0 0.564258 0.631597 0 1.41667 0H4.10243C5.40104 0 6.55208 0.675 7.08924 1.6875H31.3497C32.9021 1.6875 34.0354 3.00586 33.6281 4.34531L31.208 12.3768C30.7063 14.0326 29.024 15.1875 27.1056 15.1875H10.076L10.3948 16.6904C10.5247 17.2863 11.109 17.7188 11.7878 17.7188H28.8056C29.5906 17.7188 30.2222 18.283 30.2222 18.9844C30.2222 19.6857 29.5906 20.25 28.8056 20.25H11.7878C9.74549 20.25 7.99236 18.9527 7.61458 17.165L4.56875 2.87402C4.52743 2.67363 4.33264 2.53125 4.10243 2.53125H1.41667C0.631597 2.53125 0 1.96699 0 1.26562ZM7.55556 24.4688C7.55556 24.1363 7.62884 23.8072 7.77123 23.5001C7.91362 23.193 8.12232 22.9139 8.38542 22.6789C8.64852 22.4438 8.96086 22.2574 9.30462 22.1302C9.64837 22.003 10.0168 21.9375 10.3889 21.9375C10.761 21.9375 11.1294 22.003 11.4732 22.1302C11.8169 22.2574 12.1293 22.4438 12.3924 22.6789C12.6555 22.9139 12.8642 23.193 13.0065 23.5001C13.1489 23.8072 13.2222 24.1363 13.2222 24.4688C13.2222 24.8012 13.1489 25.1303 13.0065 25.4374C12.8642 25.7445 12.6555 26.0236 12.3924 26.2586C12.1293 26.4937 11.8169 26.6801 11.4732 26.8073C11.1294 26.9345 10.761 27 10.3889 27C10.0168 27 9.64837 26.9345 9.30462 26.8073C8.96086 26.6801 8.64852 26.4937 8.38542 26.2586C8.12232 26.0236 7.91362 25.7445 7.77123 25.4374C7.62884 25.1303 7.55556 24.8012 7.55556 24.4688ZM27.3889 21.9375C28.1403 21.9375 28.861 22.2042 29.3924 22.6789C29.9237 23.1536 30.2222 23.7974 30.2222 24.4688C30.2222 25.1401 29.9237 25.7839 29.3924 26.2586C28.861 26.7333 28.1403 27 27.3889 27C26.6374 27 25.9168 26.7333 25.3854 26.2586C24.8541 25.7839 24.5556 25.1401 24.5556 24.4688C24.5556 23.7974 24.8541 23.1536 25.3854 22.6789C25.9168 22.2042 26.6374 21.9375 27.3889 21.9375Z" fill="white"/>
</svg>
